<?xml version="1.0" standalone="no"?>
<!DOCTYPE svg PUBLIC "-//W3C//DTD SVG 20010904//EN"
 "http://www.w3.org/TR/2001/REC-SVG-20010904/DTD/svg10.dtd">
<svg version="1.0" xmlns="http://www.w3.org/2000/svg"
 width="32.000000pt" height="32.000000pt" viewBox="0 0 32.000000 32.000000"
 preserveAspectRatio="xMidYMid meet">

<g transform="translate(0.000000,32.000000) scale(0.100000,-0.100000)"
fill="#000000" stroke="none">
<path d="M155 254 c-39 -92 -55 -137 -51 -141 13 -13 48 13 62 45 l16 37 39
-45 c68 -77 85 -109 21 -40 l-60 65 -7 -28 c-6 -23 -2 -34 21 -58 24 -25 25
-29 9 -29 -10 0 -15 3 -12 7 4 3 0 14 -9 24 -13 15 -26 17 -61 12 l-44 -6 20
51 c11 28 27 68 36 89 22 53 8 34 -64 -85 -35 -57 -60 -107 -56 -110 4 -4 71
-9 150 -10 136 -4 144 -3 141 15 -3 14 -119 227 -132 242 -1 2 -10 -14 -19
-35z m8 -201 c-7 -2 -19 -2 -25 0 -7 3 -2 5 12 5 14 0 19 -2 13 -5z m-60 -10
c-7 -2 -19 -2 -25 0 -7 3 -2 5 12 5 14 0 19 -2 13 -5z"/>
</g>
</svg>
